<?xml version="1.0" standalone="no"?>
<!DOCTYPE svg PUBLIC "-//W3C//DTD SVG 20010904//EN"
 "http://www.w3.org/TR/2001/REC-SVG-20010904/DTD/svg10.dtd">
<svg version="1.0" xmlns="http://www.w3.org/2000/svg"
 width="512.000000pt" height="512.000000pt" viewBox="0 0 512.000000 512.000000"
 preserveAspectRatio="xMidYMid meet">
<metadata>
Created by potrace 1.16, written by Peter Selinger 2001-2019
</metadata>
<g transform="translate(0.000000,512.000000) scale(0.100000,-0.100000)"
fill="#000000" stroke="none">
<path d="M1033 4504 c-31 -13 -33 -17 -33 -64 0 -36 -4 -52 -15 -56 -10 -4
-13 -13 -10 -24 4 -14 0 -19 -17 -22 l-23 -3 3 -407 c3 -292 1 -408 -7 -408
-6 0 -11 10 -12 23 -1 21 -1 21 -8 -3 -5 -16 -10 11 -14 79 -7 109 -14 128
-44 116 -10 -4 -43 -7 -73 -7 -67 0 -80 15 -81 91 -1 31 -1 82 -2 113 0 48 -4
59 -20 64 -10 3 -24 1 -29 -4 -6 -6 -16 -8 -22 -6 -7 3 -25 -7 -39 -22 -22
-22 -27 -36 -27 -76 0 -27 7 -62 15 -78 8 -16 153 -233 322 -482 168 -249 376
-556 461 -683 85 -126 184 -271 219 -322 34 -50 63 -94 63 -97 0 -3 -6 -3 -14
0 -12 5 -51 -1 -146 -20 -14 -3 -38 -8 -55 -11 -16 -4 -59 -13 -95 -22 -36 -8
-74 -16 -85 -18 -43 -6 -158 -36 -178 -47 -55 -29 -162 -162 -199 -247 -37
-86 -26 -217 23 -270 20 -22 21 -46 4 -118 -3 -13 -7 -31 -9 -40 -2 -10 -5
-45 -7 -78 -9 -187 100 -345 237 -345 29 0 56 4 59 10 3 5 13 10 22 10 9 0 31
11 49 25 l32 25 64 -29 c120 -55 247 -62 354 -20 48 19 93 63 98 95 3 22 14
27 59 31 92 7 143 27 220 86 l38 29 60 -17 c36 -10 75 -14 97 -11 l37 6 59
-91 c33 -50 76 -104 95 -120 31 -25 44 -29 96 -29 77 0 111 21 165 99 35 53
44 60 60 51 34 -18 81 -12 173 22 15 6 27 17 27 24 0 8 4 14 9 14 14 0 29 50
34 114 6 66 8 69 59 85 20 7 42 19 48 27 7 7 18 14 26 14 7 0 17 6 21 12 4 7
18 21 30 31 21 18 22 18 49 1 44 -29 158 -24 221 9 42 22 61 25 116 23 51 -3
78 1 124 20 32 13 64 24 70 24 7 0 28 -15 48 -34 78 -76 160 -108 262 -102 39
2 78 8 89 14 10 6 35 17 55 26 20 9 55 34 79 57 32 32 56 45 100 55 32 7 77
23 99 35 l41 21 -2 177 -3 176 -32 15 c-39 18 -40 26 -9 151 21 84 22 102 12
145 -19 83 -44 115 -120 155 -58 31 -164 28 -235 -7 -31 -14 -65 -24 -78 -21
-31 6 -102 -8 -150 -29 -26 -12 -68 -18 -133 -19 -52 -1 -104 -5 -116 -8 -18
-6 -22 -1 -33 45 l-12 52 72 106 c480 707 659 980 642 980 -11 0 -25 -6 -32
-12 -11 -10 -14 -10 -18 0 -3 6 -13 12 -23 12 -19 0 -30 -19 -30 -51 0 -11 -7
-19 -17 -20 -35 -2 -68 3 -80 12 -7 7 -14 6 -18 -1 -3 -6 -10 -8 -15 -5 -5 3
-23 -1 -39 -10 -37 -19 -39 -19 -44 3 -4 16 -5 16 -6 0 -1 -17 -35 -26 -66
-18 -42 10 -76 7 -84 -8 -9 -16 -11 -15 -24 2 -10 14 -20 17 -33 11 -10 -4
-26 -9 -35 -10 -10 -1 -25 -9 -34 -19 -10 -10 -26 -15 -36 -13 -11 3 -22 1
-25 -4 -8 -13 -67 -7 -83 9 -11 11 -15 11 -22 1 -6 -10 -12 -9 -26 7 -13 15
-36 23 -83 28 -134 15 -223 18 -244 7 -12 -5 -30 -11 -41 -13 -12 -2 -21 -12
-23 -26 -5 -33 -42 -30 -42 4 0 26 -1 26 -60 22 l-59 -4 -3 55 c-3 55 -4 56
-33 56 -16 0 -33 5 -37 10 -4 6 -8 -15 -8 -46 0 -33 -6 -63 -15 -75 -8 -10
-15 -27 -15 -36 0 -9 -5 -20 -11 -24 -6 -4 -10 1 -8 12 1 11 -1 40 -5 65 -6
38 -11 45 -29 45 -19 -1 -22 5 -25 42 -3 34 -7 42 -18 38 -9 -3 -12 -1 -9 4 3
6 -1 11 -9 11 -9 1 -24 2 -34 2 -34 2 -52 -28 -52 -84 l0 -52 -24 22 c-24 23
-25 23 -50 5 -13 -11 -27 -28 -29 -39 -2 -11 -2 1 0 26 4 46 4 47 -29 52 -41
6 -49 -1 -57 -50 -6 -34 -9 -38 -33 -35 -22 3 -26 0 -21 -16 2 -11 0 -23 -6
-26 -7 -5 -11 4 -11 22 0 16 -9 41 -20 55 -11 14 -16 28 -12 31 5 3 8 18 5 33
-7 49 -25 137 -35 172 -8 26 -7 35 3 42 10 6 11 9 2 9 -7 0 -13 7 -13 15 0 9
-7 18 -15 21 -8 4 -15 11 -15 16 0 6 7 8 15 4 13 -5 13 -2 -1 19 -9 14 -20 25
-24 25 -4 0 -12 11 -17 23 -16 34 -87 65 -132 58 -20 -4 -52 -6 -71 -6 -39 0
-59 -18 -60 -52 0 -15 -7 -24 -17 -25 -36 -3 -69 -7 -100 -14 l-33 -6 0 -119
c0 -68 -4 -120 -10 -124 -6 -4 -10 23 -11 72 0 43 -3 132 -6 198 -4 66 -8 191
-10 278 -3 88 -9 157 -14 157 -5 0 -14 11 -19 25 l-10 25 -125 -4 c-69 -2
-129 -7 -133 -10 -3 -4 -5 -22 -4 -41 2 -26 -2 -35 -19 -40 -17 -6 -20 -13
-17 -36 4 -24 -1 -34 -22 -49 -23 -16 -27 -25 -23 -56 3 -29 0 -37 -17 -41
-19 -5 -20 -13 -20 -162 0 -86 -3 -207 -7 -268 l-6 -113 -44 0 c-43 0 -43 0
-43 35 0 31 -3 35 -25 35 -15 0 -25 6 -25 14 0 7 -9 16 -20 19 -19 5 -20 15
-22 339 l-3 333 -42 3 c-29 2 -43 8 -43 18 0 8 -4 14 -10 14 -5 0 -10 25 -10
55 0 51 -2 56 -27 66 -44 17 -56 17 -90 3z m2192 -1884 c3 -5 -3 -10 -14 -10
-29 0 -33 -13 -25 -89 5 -59 10 -70 28 -76 l21 -6 -22 -11 c-19 -9 -23 -19
-23 -59 0 -63 14 -96 42 -102 13 -3 1 -4 -27 -3 -68 2 -75 18 -82 206 l-6 148
29 5 c54 8 73 7 79 -3z m-204 -31 c12 -12 35 -51 52 -87 27 -56 32 -79 32
-139 0 -87 -19 -115 -81 -117 l-39 -1 -7 75 c-4 41 -12 119 -18 172 -7 53 -9
101 -5 107 10 18 43 13 66 -10z m-140 -25 c3 -16 12 -60 19 -99 6 -38 21 -103
32 -144 22 -83 18 -121 -13 -121 -14 0 -25 12 -37 40 -15 35 -21 40 -49 40
-18 0 -33 -4 -33 -8 0 -5 -7 -17 -15 -28 -15 -18 -16 -18 -13 6 2 19 -2 26
-19 28 -32 5 -29 18 5 25 29 6 35 24 88 275 6 31 26 23 35 -14z m-195 12 c15
-12 17 -17 7 -27 -10 -10 -16 -10 -25 -1 -21 21 -28 13 -28 -26 0 -39 17 -186
26 -229 7 -34 19 -28 31 15 l10 37 2 -46 c1 -34 -4 -50 -19 -64 -55 -50 -115
37 -115 170 0 96 7 123 39 158 28 31 44 33 72 13z m-199 -17 c15 -5 31 -16 35
-22 15 -24 8 -98 -13 -135 l-22 -37 42 -59 c44 -64 49 -76 27 -76 -8 0 -28 23
-46 50 -18 28 -36 50 -41 50 -5 0 -9 -22 -9 -49 0 -53 -23 -92 -43 -72 -16 16
-25 103 -26 239 l-1 122 34 0 c19 0 47 -5 63 -11z m-160 -125 c13 -65 25 -138
29 -160 l6 -41 -58 10 c-57 9 -58 9 -80 -18 -18 -23 -22 -25 -21 -9 1 13 -5
20 -20 22 -31 4 -29 22 1 22 14 0 27 4 30 9 3 5 17 62 31 127 14 66 28 129 30
142 12 49 31 11 52 -104z m1163 6 c40 -21 42 -44 14 -147 -58 -218 -112 -441
-119 -488 -3 -27 -9 -60 -12 -72 -9 -38 22 -28 71 22 l43 45 5 103 c4 80 11
114 30 158 53 116 151 189 255 189 99 0 140 -44 107 -113 -17 -36 -17 -38 1
-51 18 -13 18 -16 2 -67 -22 -74 -40 -171 -35 -199 3 -22 6 -21 56 26 l53 49
15 120 c8 66 16 154 18 195 l4 75 46 9 c54 11 87 0 111 -38 16 -24 15 -32 -24
-164 -48 -163 -60 -232 -41 -232 7 0 35 22 61 49 42 41 49 54 49 87 0 22 7 91
15 154 8 63 13 130 12 149 -2 31 1 35 32 43 45 12 94 3 116 -22 18 -19 18 -24
2 -93 -9 -39 -29 -121 -46 -182 -16 -60 -32 -129 -36 -152 -8 -52 0 -54 97
-23 34 11 66 20 69 20 14 0 31 -60 25 -87 -9 -41 -49 -61 -140 -69 -58 -5 -79
-11 -84 -23 -12 -36 -46 -72 -88 -97 -58 -34 -128 -34 -186 -2 -81 46 -88 113
-16 153 l36 20 -20 25 c-18 23 -20 23 -30 6 -19 -35 -72 -76 -110 -88 -37 -11
-41 -10 -66 15 l-26 27 -42 -41 c-67 -66 -142 -65 -184 3 l-18 30 -12 -23
c-21 -41 -82 -98 -118 -110 -29 -10 -38 -9 -61 8 -48 36 -54 61 -41 191 6 64
20 160 30 212 37 183 61 350 55 370 -3 11 -3 24 0 30 8 13 101 13 125 0z
m-1109 -241 c38 -27 37 -44 -10 -214 -37 -132 -59 -221 -95 -378 -19 -82 -21
-137 -4 -137 6 0 35 24 64 54 l52 54 1 83 c0 90 6 119 40 189 31 66 75 115
124 139 109 53 197 -4 197 -127 0 -82 -77 -173 -173 -206 -26 -9 -54 -16 -62
-16 -26 0 -10 -84 18 -102 43 -27 148 19 201 88 20 26 36 50 36 54 0 4 8 10
18 12 15 4 22 30 40 154 12 82 19 160 16 173 -5 15 -2 26 7 32 19 12 96 11
120 -2 17 -9 27 -4 60 25 49 45 91 50 135 18 25 -19 40 -60 50 -139 6 -47 8
-51 25 -40 43 27 36 -30 -11 -81 -16 -18 -30 -39 -30 -46 0 -27 -50 -123 -86
-164 -48 -57 -86 -75 -155 -74 l-56 1 -13 -77 c-7 -42 -12 -97 -11 -121 2 -51
-10 -63 -50 -49 -43 15 -53 59 -46 202 6 116 6 120 -11 96 -39 -55 -66 -81
-119 -111 -46 -27 -67 -32 -121 -33 -62 -1 -65 0 -97 36 l-32 38 -27 -43 c-86
-133 -203 -128 -216 9 l-5 54 -36 -24 c-20 -14 -46 -45 -58 -69 -27 -56 -55
-88 -106 -120 -113 -71 -213 -30 -251 101 -33 114 16 303 97 377 48 43 68 44
113 5 30 -27 37 -29 62 -20 37 14 75 -2 98 -41 13 -22 18 -51 18 -105 0 -41 4
-74 9 -74 5 0 22 12 38 28 26 25 31 42 67 237 21 116 39 244 40 285 3 73 4 75
31 81 51 12 75 9 104 -12z m-839 -99 c55 -16 119 -69 146 -122 85 -165 -85
-502 -269 -533 -21 -4 -42 -11 -45 -16 -11 -19 30 -110 68 -149 53 -55 91 -72
160 -73 48 0 58 -3 58 -18 0 -48 -167 -51 -259 -4 -106 53 -211 203 -197 279
9 49 29 63 70 48 18 -7 40 -12 50 -12 42 0 114 59 157 129 25 41 57 133 59
171 5 89 0 111 -29 141 -26 25 -37 29 -86 29 -97 0 -224 -53 -307 -128 -32
-29 -68 -79 -68 -95 0 -2 31 -3 70 -3 58 1 71 -2 84 -19 24 -32 19 -86 -23
-238 -55 -199 -65 -275 -40 -302 5 -5 9 -15 9 -22 0 -24 -40 -13 -76 19 -29
28 -36 43 -46 98 -9 58 -7 82 16 198 34 170 34 192 2 192 -94 0 -65 149 53
268 67 68 82 80 141 111 104 55 217 74 302 51z"/>
<path d="M3735 2114 c-65 -32 -114 -145 -115 -259 0 -81 10 -106 37 -89 35 22
68 104 74 184 7 92 24 130 68 151 27 13 30 17 17 22 -26 10 -47 8 -81 -9z"/>
<path d="M2952 1778 c-6 -18 -16 -59 -23 -91 -11 -51 -10 -60 4 -74 14 -15 18
-15 42 1 25 16 75 105 75 134 0 6 -6 12 -14 12 -8 0 -28 11 -44 25 l-30 25
-10 -32z"/>
<path d="M1866 1693 c-25 -49 -38 -116 -38 -187 1 -121 34 -157 86 -95 42 50
42 71 1 112 l-37 37 4 80 c2 44 2 80 1 80 -1 0 -9 -12 -17 -27z"/>
<path d="M3677 3944 c-4 -4 -7 -27 -7 -51 0 -23 -4 -43 -9 -43 -38 0 -250 33
-264 41 -11 6 -22 8 -25 5 -12 -13 16 -26 73 -37 33 -6 65 -17 71 -25 8 -10
26 -13 65 -9 40 3 58 0 71 -12 10 -9 18 -13 18 -9 0 3 14 -1 31 -9 24 -13 57
-16 142 -14 74 1 121 -3 139 -11 21 -10 31 -10 42 -1 11 10 16 9 24 -4 10 -18
43 -17 49 1 2 6 -26 16 -69 24 -69 12 -72 13 -50 28 12 8 22 22 22 32 0 31
-25 42 -77 34 -26 -4 -57 -8 -68 -10 -11 -1 -20 -3 -20 -4 0 -1 -26 -4 -57 -6
l-57 -5 -8 42 c-8 41 -22 57 -36 43z"/>
<path d="M2117 830 c10 -13 8 -18 -9 -29 -11 -7 -17 -8 -13 -2 9 15 -8 14 -24
-1 -8 -7 -11 -8 -8 -3 3 6 -3 17 -15 24 -11 7 -17 8 -13 2 3 -6 1 -11 -5 -11
-6 0 -9 -4 -6 -9 3 -4 -8 -7 -25 -5 -22 3 -28 0 -23 -9 5 -9 4 -9 -6 0 -11 10
-16 9 -25 -3 -9 -13 -11 -13 -11 4 0 14 6 19 17 17 10 -2 24 4 31 13 11 15 11
15 -2 6 -8 -6 -27 -10 -41 -9 -15 1 -26 -3 -26 -11 0 -7 5 -10 11 -7 6 3 7 2
3 -2 -11 -13 -38 -15 -31 -3 4 6 1 9 -7 6 -8 -3 -14 -10 -14 -16 0 -5 -3 -14
-7 -18 -4 -3 -6 2 -4 13 3 12 -1 20 -10 20 -9 0 -13 -6 -9 -16 3 -8 3 -12 -1
-8 -4 4 -13 2 -21 -4 -7 -6 -13 -8 -13 -3 0 5 -5 2 -11 -6 -9 -13 -10 -13 -6
0 2 8 11 14 18 12 11 -3 11 -1 2 9 -10 10 -10 16 0 28 11 14 10 14 -5 2 -10
-7 -15 -17 -12 -22 3 -5 -2 -9 -11 -9 -9 0 -14 4 -10 9 3 5 1 13 -5 16 -6 4
-9 1 -8 -7 2 -8 -5 -13 -17 -12 -24 1 -32 -35 -15 -65 6 -12 5 -22 -3 -32 -7
-7 -1 -5 12 6 24 20 24 20 18 0 -7 -19 -6 -19 7 -2 15 19 31 23 20 5 -5 -9 -3
-9 9 1 14 11 18 11 23 -2 5 -13 9 -14 19 -4 7 7 10 17 7 22 -3 6 1 4 9 -2 11
-9 19 -9 26 -2 6 6 10 5 10 -5 0 -8 -8 -13 -18 -11 -10 2 -21 0 -24 -5 -3 -4
3 -7 12 -5 10 1 23 0 28 -4 17 -10 35 -10 29 0 -3 5 -10 6 -16 3 -6 -4 -8 -2
-5 4 4 5 16 8 27 5 12 -3 20 0 20 8 0 7 3 9 6 6 4 -4 1 -13 -5 -21 -9 -11 -9
-16 0 -22 8 -5 9 -3 4 6 -5 8 -3 11 6 8 8 -3 23 2 33 11 11 9 16 11 13 5 -5
-8 7 -11 36 -9 23 1 51 -4 63 -12 11 -7 24 -10 28 -6 4 4 30 8 57 8 39 0 48
-3 44 -14 -5 -11 -1 -11 13 2 14 13 21 14 30 5 7 -7 12 -8 12 -3 0 4 10 0 22
-11 14 -11 18 -13 11 -3 -11 14 -7 16 37 15 40 -1 49 -4 45 -16 -3 -9 1 -7 10
4 11 14 15 16 15 5 0 -8 3 -10 8 -4 4 7 71 11 178 10 136 0 175 -3 190 -15 18
-14 18 -14 5 3 -15 18 -2 24 16 6 8 -8 13 -7 18 2 6 8 4 10 -5 4 -9 -6 -11 -4
-6 4 6 9 13 8 27 -5 10 -9 19 -14 19 -9 0 4 8 1 18 -6 15 -13 16 -12 3 3 -7
10 -18 15 -24 11 -5 -3 -7 -2 -4 4 3 5 33 8 66 8 42 -2 58 1 54 9 -4 6 2 3 13
-6 16 -14 23 -15 33 -5 17 17 54 16 68 -3 10 -12 11 -11 6 9 -6 22 -5 23 9 10
9 -7 13 -18 10 -24 -3 -5 1 -5 9 1 8 6 22 10 32 9 9 -2 15 1 12 5 -3 5 -14 7
-25 5 -11 -2 -22 0 -25 5 -3 4 3 7 12 5 10 -1 24 3 32 9 11 8 13 8 7 -1 -4 -8
-1 -13 9 -13 10 0 13 5 9 12 -4 7 -3 8 5 4 8 -6 9 -12 2 -20 -8 -9 -7 -13 4
-13 8 0 12 4 10 8 -3 3 2 12 10 19 8 7 15 9 15 4 0 -5 7 -1 14 9 12 16 14 16
20 2 3 -9 2 -14 -2 -11 -4 2 -8 -4 -8 -15 0 -19 1 -19 13 -3 7 10 11 28 9 41
-3 13 -1 21 4 18 4 -3 7 -18 6 -33 -1 -16 3 -29 10 -29 6 0 10 13 8 31 -1 17
0 25 3 18 2 -6 9 -10 13 -7 12 7 31 -30 22 -41 -4 -5 2 -2 13 7 11 9 28 15 37
14 12 -2 15 2 10 13 -5 15 -4 15 11 3 9 -7 14 -18 10 -25 -3 -6 -2 -7 3 -3 5
5 9 12 10 15 0 4 4 15 9 25 4 10 5 21 1 24 -3 4 -6 -1 -6 -11 0 -9 -5 -14 -10
-11 -7 4 -6 14 1 28 9 20 9 20 -4 5 -8 -10 -17 -15 -21 -11 -3 3 2 16 11 27
14 15 14 18 2 8 -9 -6 -19 -8 -23 -4 -4 4 -7 3 -6 -3 4 -20 -1 -30 -8 -17 -6
8 -9 2 -9 -18 0 -17 -6 -36 -13 -43 -10 -10 -11 -8 -5 8 5 11 8 31 7 45 0 14
5 32 11 40 10 13 10 13 -5 2 -9 -8 -16 -26 -16 -43 1 -16 -2 -32 -5 -36 -4 -3
-7 1 -7 10 0 9 -3 16 -7 16 -5 -1 -11 0 -15 1 -5 1 -12 3 -18 4 -5 0 -9 6 -8
11 2 6 6 9 10 8 5 -2 8 2 8 8 0 6 -9 8 -22 3 -20 -6 -21 -5 -10 9 9 10 10 17
2 22 -6 4 -9 1 -8 -7 2 -8 -6 -13 -20 -12 -17 1 -22 -3 -18 -15 5 -12 2 -11
-9 3 -8 10 -12 23 -8 29 3 6 1 7 -6 3 -6 -4 -9 -12 -6 -17 4 -5 3 -9 -2 -10
-4 0 -16 -2 -26 -4 -9 -2 -15 1 -11 6 3 5 11 6 17 3 7 -4 9 -4 5 1 -4 4 -2 15
4 24 10 12 8 12 -8 -1 -11 -10 -24 -18 -29 -18 -4 0 -1 8 6 18 13 15 12 16 -3
4 -10 -8 -14 -20 -11 -30 6 -14 5 -15 -9 -2 -12 12 -13 18 -4 30 6 8 -2 5 -18
-8 -30 -23 -51 -20 -41 5 4 13 3 14 -10 3 -12 -10 -15 -10 -15 0 0 7 -9 3 -20
-10 -11 -13 -20 -18 -20 -11 0 7 -4 10 -9 6 -5 -3 -12 -1 -16 4 -3 6 3 8 15 6
11 -2 22 0 24 4 3 4 -42 7 -99 6 -62 0 -101 3 -98 9 3 5 1 6 -6 2 -6 -4 -9
-12 -6 -17 3 -5 -2 -6 -11 -2 -13 5 -15 3 -9 -8 7 -11 6 -12 -6 -3 -8 7 -50
11 -104 10 -93 -2 -118 1 -111 13 3 4 -6 7 -19 7 -13 0 -21 -4 -19 -8 3 -5 10
-5 16 -2 6 4 9 3 6 -2 -4 -5 -81 -8 -172 -8 -119 1 -164 -2 -159 -10 4 -6 0
-6 -9 1 -8 7 -19 9 -23 5 -5 -4 -5 2 -2 13 7 20 7 20 -8 1 -8 -11 -15 -16 -15
-11 0 5 -5 4 -12 -3 -9 -9 -18 -7 -37 11 -14 12 -20 15 -14 7z"/>
</g>
</svg>
